<svg width="641" height="243" fill="none" xmlns="http://www.w3.org/2000/svg"><path fill="#005BFF" d="M0 0h641v243H0z"/><path d="M298.849 124.899h-22.685l28.961-39.394c.631-.865.456-2.126-.385-2.775a1.881 1.881 0 0 0-1.157-.397h-41.899c-3.682 0-6.697 3.1-6.697 6.885 0 3.784 3.015 6.883 6.697 6.883h18.828l-29.067 39.43c-.666.865-.49 2.09.351 2.775.351.288.771.433 1.192.397h45.826c3.682-.181 6.522-3.424 6.346-7.245-.175-3.532-2.91-6.343-6.346-6.523v-.036h.035Zm146.419-42.566c-3.681 0-6.697 3.1-6.697 6.885v23.102l-36.184-29.518a1.87 1.87 0 0 0-2.699.288c-.281.36-.421.793-.421 1.262v47.467c0 3.784 3.015 6.884 6.697 6.884 3.681 0 6.696-3.064 6.696-6.884v-23.103l36.184 29.554a1.913 1.913 0 0 0 2.735-.324c.281-.361.421-.793.421-1.226V89.218c-.035-3.82-3.015-6.885-6.732-6.885Zm-95.754 43.863c-15.322 0-26.752-8.289-26.752-15.714 0-7.425 11.465-15.714 26.752-15.714 15.322 0 26.752 8.289 26.752 15.714 0 7.425-11.395 15.714-26.752 15.714Zm0-45.196c-22.159 0-40.146 13.191-40.146 29.482 0 16.291 17.987 29.482 40.146 29.482 22.159 0 40.146-13.191 40.146-29.482 0-16.29-17.987-29.482-40.146-29.482Zm-131.798 45.232c-8.45 0-15.322-7.028-15.322-15.714s6.837-15.75 15.287-15.75c8.45 0 15.322 7.028 15.322 15.714v.036c0 8.65-6.837 15.678-15.287 15.714Zm0-45.232c-15.848 0-28.681 13.191-28.716 29.482 0 16.291 12.833 29.482 28.681 29.518 15.848 0 28.68-13.191 28.715-29.482v-.036C246.361 94.192 233.529 81 217.716 81Z" fill="#fff"/></svg>