<svg width="641" height="243" fill="none" xmlns="http://www.w3.org/2000/svg"><path d="M0 0h642v243H0V0Z" fill="url(#a)"/><path d="M113.49 145.087 100 96.864h8.849l10.367 37.036 11.109-37.04 8.249.004 11.147 37.234 10.413-37.225 8.849-.012-13.497 48.218-10.258-.011-10.774-36.013-10.789 36.022-10.175.01Zm61.597-48.198h8.423v48.165h-8.423V96.889Zm26.435 40.611h20.507v7.555h-28.758V96.889h8.251V137.5Zm46.419-40.555c6.914 0 12.665 2.332 17.198 6.944 4.589 4.611 6.91 10.332 6.91 17.111 0 6.721-2.323 12.445-6.914 17.111-4.53 4.61-10.282 6.944-17.196 6.944H228.13V96.889h19.811v.056Zm0 40.61c4.765 0 8.656-1.555 11.562-4.666 3.021-3.11 4.531-7.112 4.531-11.834 0-4.834-1.51-8.721-4.531-11.834-2.965-3.11-6.856-4.666-11.562-4.666h-11.503v33h11.503Zm68.554-6.259c0 3.947-1.451 7.225-4.414 9.838-2.963 2.612-6.449 3.946-10.748 3.946h-21.555V96.89h19.986c4.125 0 7.61 1.333 10.457 3.833 2.906 2.557 4.3 5.727 4.3 9.506 0 4.225-1.744 7.448-5.112 9.839 4.414 2.223 7.086 6.225 7.086 11.228Zm-28.409-26.958v12.673h11.735c3.661 0 6.45-2.781 6.45-6.338s-2.789-6.335-6.45-6.335h-11.735Zm13.304 33.294c3.834 0 6.857-2.946 6.857-6.725 0-3.78-3.023-6.727-6.857-6.727h-13.304v13.508h13.304v-.056Zm31.198-.111h22.31v7.559h-30.559V96.89h30.211v7.558h-21.962v12.507h20.161v7.504h-20.161v13.062Zm58.447 7.559-10.691-17.564h-9.761v17.564h-8.248V96.89h20.159c4.532 0 8.366 1.5 11.445 4.556 3.137 2.947 4.765 6.615 4.765 10.95 0 6.115-4.009 11.729-9.993 13.952l11.444 18.732h-9.12Zm-20.452-40.742v16.119h11.853c4.415 0 7.901-3.559 7.901-8.061 0-4.446-3.543-8.058-7.901-8.058h-11.853Zm64.547 40.742-10.632-17.573h-9.761v17.573h-8.248V96.864h20.159c4.532 0 8.366 1.5 11.446 4.561 3.136 2.946 4.764 6.618 4.764 10.955 0 6.118-4.009 11.734-9.993 13.959l11.444 18.741h-9.179Zm-20.393-40.764v16.129h11.853c4.415 0 7.901-3.561 7.901-8.065 0-4.45-3.543-8.064-7.901-8.064h-11.853Zm35.615-7.446h8.25v48.21h-8.25V96.87Zm26.26 40.651h22.31v7.559h-30.561V96.89h30.211v7.558h-21.96v12.507h20.159v7.504h-20.159v13.062Zm28.061-3.41 7.146-4c2.033 5.446 6.159 8.11 12.49 8.11 6.275 0 9.354-2.553 9.354-6.332 0-2-.871-3.446-2.497-4.446-1.628-1.054-4.648-2.222-8.947-3.443-4.823-1.389-7.205-2.279-10.575-4.389-3.252-2.222-4.88-5.39-4.88-9.722 0-4.278 1.569-7.61 4.764-10.11C514.666 97.22 518.501 96 522.974 96c8.076 0 14.292 4 17.546 10.611l-6.973 3.834c-2.092-4.445-5.635-6.724-10.573-6.724-4.823 0-7.902 2.334-7.902 6 0 3.558 2.44 5.224 10.167 7.5 1.918.613 3.312 1.058 4.183 1.39.93.278 2.149.778 3.718 1.389 1.628.611 2.906 1.334 3.661 1.945 2.673 2 5.518 5.276 5.17 9.889 0 4.332-1.626 7.832-4.938 10.387-3.254 2.558-7.552 3.779-12.897 3.779-9.761-.055-16.849-4.5-19.463-11.889Z" fill="#fff"/><defs><linearGradient id="a" x1="347.541" y1="0" x2="25.585" y2="444.603" gradientUnits="userSpaceOnUse"><stop stop-color="#AE119C"/><stop offset="1" stop-color="#490F74"/></linearGradient></defs></svg>