<svg width="263" height="60" fill="none" xmlns="http://www.w3.org/2000/svg"><rect width="203" height="60" rx="30" fill="#fff"/><path d="m39.662 36-4.176-12.6h2.43l3.726 11.394h-1.206l3.87-11.394h2.16l3.762 11.394h-1.17L52.874 23.4h2.232L50.93 36h-2.484l-3.438-10.278h.648L42.164 36h-2.502Zm17.35 0V23.4h2.34V36h-2.34Zm5.748 0V23.4h2.34v10.62h6.588V36H62.76Zm10.776 0V23.4h5.508c1.368 0 2.568.264 3.6.792s1.836 1.26 2.412 2.196c.576.936.864 2.04.864 3.312 0 1.26-.288 2.364-.864 3.312-.576.936-1.38 1.668-2.412 2.196-1.032.528-2.232.792-3.6.792h-5.508Zm2.34-1.98h3.06c.948 0 1.764-.18 2.448-.54a3.826 3.826 0 0 0 1.602-1.512c.384-.648.576-1.404.576-2.268 0-.876-.192-1.632-.576-2.268a3.826 3.826 0 0 0-1.602-1.512c-.684-.36-1.5-.54-2.448-.54h-3.06v8.64ZM88.406 36V23.4h5.905c1.512 0 2.664.3 3.456.9.792.588 1.188 1.38 1.188 2.376 0 .672-.156 1.248-.468 1.728a3.204 3.204 0 0 1-1.26 1.098 3.803 3.803 0 0 1-1.692.378l.324-.648c.708 0 1.344.132 1.908.396a3.04 3.04 0 0 1 1.332 1.116c.336.492.504 1.104.504 1.836 0 1.08-.414 1.92-1.242 2.52-.828.6-2.058.9-3.69.9h-6.264Zm2.34-1.836h3.78c.877 0 1.549-.144 2.017-.432.468-.288.702-.75.702-1.386 0-.624-.234-1.08-.702-1.368-.468-.3-1.14-.45-2.016-.45h-3.96V28.71h3.492c.816 0 1.44-.144 1.872-.432.444-.288.666-.72.666-1.296 0-.588-.222-1.026-.666-1.314-.432-.288-1.056-.432-1.872-.432h-3.312v8.928Zm13.514-5.526h6.264v1.926h-6.264v-1.926Zm.18 5.4h7.11V36h-9.45V23.4h9.198v1.962h-6.858v8.676ZM114.159 36V23.4h5.184c1.116 0 2.07.18 2.862.54.804.36 1.422.876 1.854 1.548.432.672.648 1.47.648 2.394 0 .924-.216 1.722-.648 2.394-.432.66-1.05 1.17-1.854 1.53-.792.348-1.746.522-2.862.522h-3.888l1.044-1.062V36h-2.34Zm8.244 0-3.186-4.572h2.502L124.923 36h-2.52Zm-5.904-4.482-1.044-1.116h3.78c1.032 0 1.806-.222 2.322-.666.528-.444.792-1.062.792-1.854 0-.804-.264-1.422-.792-1.854-.516-.432-1.29-.648-2.322-.648h-3.78l1.044-1.152v7.29ZM127.325 36V23.4h5.184c1.116 0 2.07.18 2.862.54.804.36 1.422.876 1.854 1.548.432.672.648 1.47.648 2.394 0 .924-.216 1.722-.648 2.394-.432.66-1.05 1.17-1.854 1.53-.792.348-1.746.522-2.862.522h-3.888l1.044-1.062V36h-2.34Zm8.244 0-3.186-4.572h2.502L138.089 36h-2.52Zm-5.904-4.482-1.044-1.116h3.78c1.032 0 1.806-.222 2.322-.666.528-.444.792-1.062.792-1.854 0-.804-.264-1.422-.792-1.854-.516-.432-1.29-.648-2.322-.648h-3.78l1.044-1.152v7.29ZM140.491 36V23.4h2.34V36h-2.34Zm7.908-7.362h6.264v1.926h-6.264v-1.926Zm.18 5.4h7.11V36h-9.45V23.4h9.198v1.962h-6.858v8.676Zm13.624 2.142a9.585 9.585 0 0 1-2.826-.414c-.9-.288-1.614-.654-2.142-1.098l.81-1.818c.504.396 1.128.726 1.872.99a6.788 6.788 0 0 0 2.286.396c.66 0 1.194-.072 1.602-.216.408-.144.708-.336.9-.576.192-.252.288-.534.288-.846 0-.384-.138-.69-.414-.918-.276-.24-.636-.426-1.08-.558a14.758 14.758 0 0 0-1.458-.396 28.654 28.654 0 0 1-1.602-.414 7.632 7.632 0 0 1-1.458-.63 3.269 3.269 0 0 1-1.062-1.044c-.276-.432-.414-.984-.414-1.656 0-.684.18-1.308.54-1.872.372-.576.93-1.032 1.674-1.368.756-.348 1.71-.522 2.862-.522a8.97 8.97 0 0 1 2.25.288c.744.192 1.392.468 1.944.828l-.738 1.818a6.693 6.693 0 0 0-1.746-.738 6.404 6.404 0 0 0-1.728-.252c-.648 0-1.176.078-1.584.234-.396.156-.69.36-.882.612-.18.252-.27.54-.27.864 0 .384.132.696.396.936.276.228.63.408 1.062.54.444.132.936.264 1.476.396.54.12 1.074.258 1.602.414.54.156 1.026.36 1.458.612.444.252.798.594 1.062 1.026.276.432.414.978.414 1.638 0 .672-.186 1.296-.558 1.872-.36.564-.918 1.02-1.674 1.368-.756.336-1.71.504-2.862.504Z" fill="#000C5D"/><path d="m39.662 36-4.176-12.6h2.43l3.726 11.394h-1.206l3.87-11.394h2.16l3.762 11.394h-1.17L52.874 23.4h2.232L50.93 36h-2.484l-3.438-10.278h.648L42.164 36h-2.502Zm17.35 0V23.4h2.34V36h-2.34Zm5.748 0V23.4h2.34v10.62h6.588V36H62.76Zm10.776 0V23.4h5.508c1.368 0 2.568.264 3.6.792s1.836 1.26 2.412 2.196c.576.936.864 2.04.864 3.312 0 1.26-.288 2.364-.864 3.312-.576.936-1.38 1.668-2.412 2.196-1.032.528-2.232.792-3.6.792h-5.508Zm2.34-1.98h3.06c.948 0 1.764-.18 2.448-.54a3.826 3.826 0 0 0 1.602-1.512c.384-.648.576-1.404.576-2.268 0-.876-.192-1.632-.576-2.268a3.826 3.826 0 0 0-1.602-1.512c-.684-.36-1.5-.54-2.448-.54h-3.06v8.64ZM88.406 36V23.4h5.905c1.512 0 2.664.3 3.456.9.792.588 1.188 1.38 1.188 2.376 0 .672-.156 1.248-.468 1.728a3.204 3.204 0 0 1-1.26 1.098 3.803 3.803 0 0 1-1.692.378l.324-.648c.708 0 1.344.132 1.908.396a3.04 3.04 0 0 1 1.332 1.116c.336.492.504 1.104.504 1.836 0 1.08-.414 1.92-1.242 2.52-.828.6-2.058.9-3.69.9h-6.264Zm2.34-1.836h3.78c.877 0 1.549-.144 2.017-.432.468-.288.702-.75.702-1.386 0-.624-.234-1.08-.702-1.368-.468-.3-1.14-.45-2.016-.45h-3.96V28.71h3.492c.816 0 1.44-.144 1.872-.432.444-.288.666-.72.666-1.296 0-.588-.222-1.026-.666-1.314-.432-.288-1.056-.432-1.872-.432h-3.312v8.928Zm13.514-5.526h6.264v1.926h-6.264v-1.926Zm.18 5.4h7.11V36h-9.45V23.4h9.198v1.962h-6.858v8.676ZM114.159 36V23.4h5.184c1.116 0 2.07.18 2.862.54.804.36 1.422.876 1.854 1.548.432.672.648 1.47.648 2.394 0 .924-.216 1.722-.648 2.394-.432.66-1.05 1.17-1.854 1.53-.792.348-1.746.522-2.862.522h-3.888l1.044-1.062V36h-2.34Zm8.244 0-3.186-4.572h2.502L124.923 36h-2.52Zm-5.904-4.482-1.044-1.116h3.78c1.032 0 1.806-.222 2.322-.666.528-.444.792-1.062.792-1.854 0-.804-.264-1.422-.792-1.854-.516-.432-1.29-.648-2.322-.648h-3.78l1.044-1.152v7.29ZM127.325 36V23.4h5.184c1.116 0 2.07.18 2.862.54.804.36 1.422.876 1.854 1.548.432.672.648 1.47.648 2.394 0 .924-.216 1.722-.648 2.394-.432.66-1.05 1.17-1.854 1.53-.792.348-1.746.522-2.862.522h-3.888l1.044-1.062V36h-2.34Zm8.244 0-3.186-4.572h2.502L138.089 36h-2.52Zm-5.904-4.482-1.044-1.116h3.78c1.032 0 1.806-.222 2.322-.666.528-.444.792-1.062.792-1.854 0-.804-.264-1.422-.792-1.854-.516-.432-1.29-.648-2.322-.648h-3.78l1.044-1.152v7.29ZM140.491 36V23.4h2.34V36h-2.34Zm7.908-7.362h6.264v1.926h-6.264v-1.926Zm.18 5.4h7.11V36h-9.45V23.4h9.198v1.962h-6.858v8.676Zm13.624 2.142a9.585 9.585 0 0 1-2.826-.414c-.9-.288-1.614-.654-2.142-1.098l.81-1.818c.504.396 1.128.726 1.872.99a6.788 6.788 0 0 0 2.286.396c.66 0 1.194-.072 1.602-.216.408-.144.708-.336.9-.576.192-.252.288-.534.288-.846 0-.384-.138-.69-.414-.918-.276-.24-.636-.426-1.08-.558a14.758 14.758 0 0 0-1.458-.396 28.654 28.654 0 0 1-1.602-.414 7.632 7.632 0 0 1-1.458-.63 3.269 3.269 0 0 1-1.062-1.044c-.276-.432-.414-.984-.414-1.656 0-.684.18-1.308.54-1.872.372-.576.93-1.032 1.674-1.368.756-.348 1.71-.522 2.862-.522a8.97 8.97 0 0 1 2.25.288c.744.192 1.392.468 1.944.828l-.738 1.818a6.693 6.693 0 0 0-1.746-.738 6.404 6.404 0 0 0-1.728-.252c-.648 0-1.176.078-1.584.234-.396.156-.69.36-.882.612-.18.252-.27.54-.27.864 0 .384.132.696.396.936.276.228.63.408 1.062.54.444.132.936.264 1.476.396.54.12 1.074.258 1.602.414.54.156 1.026.36 1.458.612.444.252.798.594 1.062 1.026.276.432.414.978.414 1.638 0 .672-.186 1.296-.558 1.872-.36.564-.918 1.02-1.674 1.368-.756.336-1.71.504-2.862.504Z" fill="url(#a)"/><circle cx="233" cy="30" r="30" fill="#000C5E"/><circle cx="233" cy="30" r="30" fill="url(#b)"/><path d="M226 29a1 1 0 0 0 0 2v-2Zm14.207 1.707a1 1 0 0 0 0-1.414l-6.364-6.364a1 1 0 1 0-1.414 1.414L238.086 30l-5.657 5.657a1 1 0 1 0 1.414 1.414l6.364-6.364ZM226 31h13.5v-2H226v2Z" fill="#fff"/><defs><linearGradient id="a" x1="106.998" y1="19" x2="89.348" y2="74.774" gradientUnits="userSpaceOnUse"><stop stop-color="#AE119C"/><stop offset="1" stop-color="#490F74"/></linearGradient><linearGradient id="b" x1="235.48" y1="0" x2="166.78" y2="35.909" gradientUnits="userSpaceOnUse"><stop stop-color="#AE119C"/><stop offset="1" stop-color="#490F74"/></linearGradient></defs></svg>