<svg width="107" height="87" fill="none" xmlns="http://www.w3.org/2000/svg"><ellipse cx="52.769" cy="42.942" rx="32.55" ry="38.653" fill="#9CDCF8"/><ellipse cx="52.39" cy="42.658" rx="26.663" ry="45.683" transform="rotate(67.654 52.39 42.658)" fill="#03AEEF"/><ellipse cx="53.599" cy="43.091" rx="27.671" ry="45.683" transform="rotate(112.582 53.6 43.091)" fill="#E41F24"/><ellipse cx="52.69" cy="43.349" rx="40.077" ry="29.295" fill="#05168B"/><path d="M72.068 58.11c-1.595 0-3.044-.392-4.349-1.174a9.003 9.003 0 0 1-3.043-3.218c-.754-1.334-1.131-2.827-1.131-4.48l.043-13.566c0-1.595.363-3.044 1.087-4.349a8.649 8.649 0 0 1 3.044-3.174c1.305-.812 2.754-1.218 4.349-1.218 1.594 0 3.03.392 4.305 1.174a8.65 8.65 0 0 1 3.044 3.175c.754 1.304 1.13 2.768 1.13 4.392v2c0 .116-.058.174-.174.174h-4.87c-.116 0-.174-.058-.174-.174v-2c0-.957-.319-1.783-.956-2.479-.61-.696-1.377-1.043-2.305-1.043-1.044 0-1.841.362-2.392 1.087-.55.695-.826 1.507-.826 2.435v13.567c0 1.073.304 1.942.913 2.609.638.667 1.406 1 2.305 1 .928 0 1.696-.362 2.305-1.087.637-.754.956-1.594.956-2.522v-2c0-.116.058-.174.174-.174h4.914c.116 0 .174.058.174.174v2c0 1.652-.391 3.145-1.174 4.479a9.004 9.004 0 0 1-3.044 3.218c-1.276.782-2.71 1.174-4.305 1.174Zm-27.998-.435c-.117 0-.175-.073-.175-.218l.087-29.873c0-.116.059-.174.174-.174h8.35c1.652 0 3.13.405 4.435 1.217a8.639 8.639 0 0 1 3.087 3.131 8.37 8.37 0 0 1 1.13 4.262c0 1.246-.29 2.406-.869 3.478-.55 1.073-1.217 1.943-2 2.61a9.046 9.046 0 0 1 1.957 2.913 8.875 8.875 0 0 1 .695 3.479c0 1.681-.405 3.218-1.217 4.609a9.378 9.378 0 0 1-3.305 3.348c-1.362.812-2.884 1.218-4.566 1.218H44.07ZM49.2 39.41h3.305c1.015 0 1.827-.348 2.436-1.043.637-.725.956-1.508.956-2.348 0-.928-.333-1.725-1-2.392-.667-.696-1.464-1.044-2.392-1.044h-3.304v6.827Zm-.043 12.959h2.696c1.044 0 1.942-.377 2.696-1.13.754-.784 1.13-1.697 1.13-2.74 0-1.044-.376-1.943-1.13-2.696-.754-.754-1.652-1.131-2.696-1.131h-2.652l-.044 7.697ZM23.86 57.457l5.392-29.873c.028-.116.1-.174.217-.174h6.305c.116 0 .189.058.218.174l5.174 29.873c.03.145-.029.218-.174.218h-4.826c-.116 0-.189-.073-.218-.218l-.478-3.174h-5.914l-.479 3.174c-.029.145-.101.218-.217.218h-4.827c-.116 0-.174-.073-.174-.218Zm6.566-7.827H34.6l-1.783-12.219-.26-1.609-.175 1.61-1.956 12.218Z" fill="#fff"/></svg>