<svg width="187" height="60" fill="none" xmlns="http://www.w3.org/2000/svg"><rect width="127" height="60" rx="30" fill="#fff"/><path d="M42.596 36.18c-.984 0-1.89-.162-2.718-.486a6.65 6.65 0 0 1-2.16-1.35 6.242 6.242 0 0 1-1.422-2.052 6.569 6.569 0 0 1-.504-2.592c0-.936.168-1.794.504-2.574a6.003 6.003 0 0 1 1.422-2.052 6.498 6.498 0 0 1 2.16-1.368 7.345 7.345 0 0 1 2.7-.486c.984 0 1.884.162 2.7.486.828.324 1.548.78 2.16 1.368a6.003 6.003 0 0 1 1.422 2.052c.336.78.504 1.638.504 2.574 0 .936-.168 1.8-.504 2.592a6.003 6.003 0 0 1-1.422 2.052 6.65 6.65 0 0 1-2.16 1.35c-.816.324-1.71.486-2.682.486Zm-.018-2.052c.636 0 1.224-.108 1.764-.324a4.13 4.13 0 0 0 1.404-.918c.396-.408.702-.876.918-1.404.228-.54.342-1.134.342-1.782 0-.648-.114-1.236-.342-1.764a4.13 4.13 0 0 0-.918-1.404 4.005 4.005 0 0 0-1.404-.936 4.707 4.707 0 0 0-1.764-.324c-.636 0-1.224.108-1.764.324a4.236 4.236 0 0 0-1.404.936 4.361 4.361 0 0 0-.936 1.404 4.619 4.619 0 0 0-.324 1.764c0 .636.108 1.224.324 1.764.228.54.54 1.014.936 1.422a4.13 4.13 0 0 0 1.404.918c.54.216 1.128.324 1.764.324ZM50.75 36v-1.566l8.136-9.936.27.882h-8.28V23.4h10.386v1.566l-8.136 9.936-.288-.882h8.658V36H50.75Zm18.653.18c-.984 0-1.89-.162-2.718-.486a6.65 6.65 0 0 1-2.16-1.35 6.242 6.242 0 0 1-1.422-2.052 6.569 6.569 0 0 1-.504-2.592c0-.936.168-1.794.504-2.574a6.003 6.003 0 0 1 1.422-2.052 6.498 6.498 0 0 1 2.16-1.368 7.345 7.345 0 0 1 2.7-.486c.984 0 1.884.162 2.7.486.828.324 1.548.78 2.16 1.368a6.003 6.003 0 0 1 1.422 2.052c.336.78.504 1.638.504 2.574 0 .936-.168 1.8-.504 2.592a6.003 6.003 0 0 1-1.422 2.052 6.65 6.65 0 0 1-2.16 1.35c-.816.324-1.71.486-2.682.486Zm-.018-2.052c.636 0 1.224-.108 1.764-.324a4.13 4.13 0 0 0 1.404-.918c.396-.408.702-.876.918-1.404.228-.54.342-1.134.342-1.782 0-.648-.114-1.236-.342-1.764a4.13 4.13 0 0 0-.918-1.404 4.005 4.005 0 0 0-1.404-.936 4.707 4.707 0 0 0-1.764-.324c-.636 0-1.224.108-1.764.324a4.236 4.236 0 0 0-1.404.936 4.361 4.361 0 0 0-.936 1.404 4.619 4.619 0 0 0-.324 1.764c0 .636.108 1.224.324 1.764.228.54.54 1.014.936 1.422a4.13 4.13 0 0 0 1.404.918c.54.216 1.128.324 1.764.324ZM78.65 36V23.4h1.926l7.902 9.702h-.954V23.4h2.322V36H87.92l-7.902-9.702h.954V36H78.65Z" fill="#005BFF"/><circle cx="157" cy="30" r="30" fill="#005BFF"/><path d="M150 29a1 1 0 0 0 0 2v-2Zm14.207 1.707a1 1 0 0 0 0-1.414l-6.364-6.364a1 1 0 1 0-1.414 1.414L162.086 30l-5.657 5.657a1 1 0 1 0 1.414 1.414l6.364-6.364ZM150 31h13.5v-2H150v2Z" fill="#fff"/></svg>