<svg width="42" height="42" fill="none" xmlns="http://www.w3.org/2000/svg"><rect width="42" height="42" rx="21" fill="#fff"/><path d="m30.94 24.79-5.181-2.322-.015-.006a1.76 1.76 0 0 0-1.668.154.884.884 0 0 0-.083.061l-2.677 2.283c-1.696-.824-3.448-2.562-4.271-4.236l2.285-2.718c.022-.028.043-.055.063-.085a1.762 1.762 0 0 0 .145-1.657v-.013l-2.329-5.19a1.76 1.76 0 0 0-1.828-1.048A6.188 6.188 0 0 0 10 16.16C10 24.894 17.106 32 25.84 32a6.188 6.188 0 0 0 6.147-5.381 1.76 1.76 0 0 0-1.046-1.828Zm-5.1 5.45a14.096 14.096 0 0 1-14.08-14.08 4.423 4.423 0 0 1 3.836-4.4v.013l2.31 5.17-2.274 2.721a.667.667 0 0 0-.063.085 1.76 1.76 0 0 0-.11 1.727c.997 2.039 3.05 4.077 5.111 5.072a1.76 1.76 0 0 0 1.732-.125.87.87 0 0 0 .082-.062l2.674-2.281 5.17 2.315h.012a4.423 4.423 0 0 1-4.4 3.845Z" fill="#05168B"/></svg>