<svg width="641" height="243" viewBox="0 0 641 243" fill="none" xmlns="http://www.w3.org/2000/svg">
<rect width="641" height="243" fill="#005BFF"/>
<path d="M298.849 124.899H276.164L305.125 85.5052C305.756 84.6402 305.581 83.3787 304.74 82.73C304.424 82.4777 304.003 82.3335 303.583 82.3335H261.684C258.002 82.3335 254.987 85.4331 254.987 89.2175C254.987 93.0018 258.002 96.1014 261.684 96.1014H280.512L251.445 135.531C250.779 136.396 250.955 137.621 251.796 138.306C252.147 138.594 252.567 138.739 252.988 138.703H298.814C302.496 138.522 305.336 135.279 305.16 131.458C304.985 127.926 302.25 125.115 298.814 124.935V124.899H298.849ZM445.268 82.3335C441.587 82.3335 438.571 85.4331 438.571 89.2175V112.32L402.387 82.8021C401.581 82.1173 400.354 82.2254 399.688 83.0904C399.407 83.4508 399.267 83.8833 399.267 84.3519V131.819C399.267 135.603 402.282 138.703 405.964 138.703C409.645 138.703 412.66 135.639 412.66 131.819V108.716L448.844 138.27C449.686 138.955 450.913 138.811 451.579 137.946C451.86 137.585 452 137.153 452 136.72V89.2175C451.965 85.3971 448.985 82.3335 445.268 82.3335ZM349.514 126.196C334.192 126.196 322.762 117.907 322.762 110.482C322.762 103.057 334.227 94.7679 349.514 94.7679C364.836 94.7679 376.266 103.057 376.266 110.482C376.266 117.907 364.871 126.196 349.514 126.196ZM349.514 81C327.355 81 309.368 94.1912 309.368 110.482C309.368 126.773 327.355 139.964 349.514 139.964C371.673 139.964 389.66 126.773 389.66 110.482C389.66 94.1912 371.673 81 349.514 81ZM217.716 126.232C209.266 126.232 202.394 119.204 202.394 110.518C202.394 101.832 209.231 94.7679 217.681 94.7679C226.131 94.7679 233.003 101.796 233.003 110.482V110.518C233.003 119.168 226.166 126.196 217.716 126.232ZM217.716 81C201.868 81 189.035 94.1912 189 110.482C189 126.773 201.833 139.964 217.681 140C233.529 140 246.361 126.809 246.396 110.518V110.482C246.361 94.1912 233.529 81 217.716 81Z" fill="white"/>
</svg>
