<svg width="641" height="243" viewBox="0 0 641 243" fill="none" xmlns="http://www.w3.org/2000/svg">
<path d="M0 0H642V243H0V0Z" fill="url(#paint0_linear_2010_7)"/>
<path d="M113.49 145.087L100 96.8643H108.849L119.216 133.9L130.325 96.8607L138.574 96.8643L149.721 134.098L160.134 96.8732L168.983 96.8607L155.486 145.079L145.228 145.068L134.454 109.055L123.665 145.077L113.49 145.087ZM175.087 96.8893H183.51V145.054H175.087V96.8893ZM201.522 137.5H222.029V145.055H193.271V96.8893H201.522V137.5ZM247.941 96.9446C254.855 96.9446 260.606 99.2768 265.139 103.889C269.728 108.5 272.049 114.221 272.049 121C272.049 127.721 269.726 133.445 265.135 138.111C260.605 142.721 254.853 145.055 247.939 145.055H228.13V96.8893H247.941V96.9429V96.9446ZM247.941 137.555C252.706 137.555 256.597 136 259.503 132.889C262.524 129.779 264.034 125.777 264.034 121.055C264.034 116.221 262.524 112.334 259.503 109.221C256.538 106.111 252.647 104.555 247.941 104.555H236.438V137.555H247.941ZM316.495 131.296C316.495 135.243 315.044 138.521 312.081 141.134C309.118 143.746 305.632 145.08 301.333 145.08H279.778V96.8893H299.764C303.889 96.8893 307.374 98.2232 310.221 100.723C313.127 103.28 314.521 106.45 314.521 110.229C314.521 114.454 312.777 117.677 309.409 120.068C313.823 122.291 316.495 126.293 316.495 131.296ZM288.086 104.338V117.011H299.821C303.482 117.011 306.271 114.23 306.271 110.673C306.271 107.116 303.482 104.338 299.821 104.338H288.086ZM301.39 137.632C305.224 137.632 308.247 134.686 308.247 130.907C308.247 127.127 305.224 124.18 301.39 124.18H288.086V137.688H301.39V137.632ZM332.588 137.521H354.898V145.08H324.339V96.8893H354.55V104.448H332.588V116.955H352.749V124.459H332.588V137.521ZM391.035 145.08L380.344 127.516H370.583V145.08H362.335V96.8893H382.494C387.026 96.8893 390.86 98.3893 393.939 101.446C397.076 104.393 398.704 108.061 398.704 112.396C398.704 118.511 394.695 124.125 388.711 126.348L400.155 145.08H391.035ZM370.583 104.338V120.457H382.436C386.851 120.457 390.337 116.898 390.337 112.396C390.337 107.95 386.794 104.338 382.436 104.338H370.583ZM435.13 145.08L424.498 127.507H414.737V145.08H406.489V96.8643H426.648C431.18 96.8643 435.014 98.3643 438.094 101.425C441.23 104.371 442.858 108.043 442.858 112.38C442.858 118.498 438.849 124.114 432.865 126.339L444.309 145.08H435.13ZM414.737 104.316V120.445H426.59C431.005 120.445 434.491 116.884 434.491 112.38C434.491 107.93 430.948 104.316 426.59 104.316H414.737ZM450.352 96.8696H458.602V145.08H450.352V96.8696ZM476.612 137.521H498.922V145.08H468.361V96.8893H498.572V104.448H476.612V116.955H496.771V124.459H476.612V137.521ZM504.673 134.111L511.819 130.111C513.852 135.557 517.978 138.221 524.309 138.221C530.584 138.221 533.663 135.668 533.663 131.889C533.663 129.889 532.792 128.443 531.166 127.443C529.538 126.389 526.518 125.221 522.219 124C517.396 122.611 515.014 121.721 511.644 119.611C508.392 117.389 506.764 114.221 506.764 109.889C506.764 105.611 508.333 102.279 511.528 99.7786C514.666 97.2214 518.501 96 522.974 96C531.05 96 537.266 100 540.52 106.611L533.547 110.445C531.455 106 527.912 103.721 522.974 103.721C518.151 103.721 515.072 106.055 515.072 109.721C515.072 113.279 517.512 114.945 525.239 117.221C527.157 117.834 528.551 118.279 529.422 118.611C530.352 118.889 531.571 119.389 533.14 120C534.768 120.611 536.046 121.334 536.801 121.945C539.474 123.945 542.319 127.221 541.971 131.834C541.971 136.166 540.345 139.666 537.033 142.221C533.779 144.779 529.481 146 524.136 146C514.375 145.945 507.287 141.5 504.673 134.111Z" fill="white"/>
<defs>
<linearGradient id="paint0_linear_2010_7" x1="347.541" y1="7.38513e-06" x2="25.5855" y2="444.603" gradientUnits="userSpaceOnUse">
<stop stop-color="#AE119C"/>
<stop offset="1" stop-color="#490F74"/>
</linearGradient>
</defs>
</svg>
