<svg width="263" height="60" viewBox="0 0 263 60" fill="none" xmlns="http://www.w3.org/2000/svg">
<rect width="203" height="60" rx="30" fill="white"/>
<path d="M39.662 36L35.486 23.4H37.916L41.642 34.794H40.436L44.306 23.4H46.466L50.228 34.794H49.058L52.874 23.4H55.106L50.93 36H48.446L45.008 25.722H45.656L42.164 36H39.662ZM57.0123 36V23.4H59.3523V36H57.0123ZM62.7604 36V23.4H65.1004V34.02H71.6884V36H62.7604ZM73.5358 36V23.4H79.0438C80.4118 23.4 81.6118 23.664 82.6438 24.192C83.6758 24.72 84.4798 25.452 85.0558 26.388C85.6318 27.324 85.9198 28.428 85.9198 29.7C85.9198 30.96 85.6318 32.064 85.0558 33.012C84.4798 33.948 83.6758 34.68 82.6438 35.208C81.6118 35.736 80.4118 36 79.0438 36H73.5358ZM75.8758 34.02H78.9358C79.8838 34.02 80.6998 33.84 81.3838 33.48C82.0798 33.12 82.6138 32.616 82.9858 31.968C83.3698 31.32 83.5618 30.564 83.5618 29.7C83.5618 28.824 83.3698 28.068 82.9858 27.432C82.6138 26.784 82.0798 26.28 81.3838 25.92C80.6998 25.56 79.8838 25.38 78.9358 25.38H75.8758V34.02ZM88.4068 36V23.4H94.3108C95.8228 23.4 96.9748 23.7 97.7668 24.3C98.5588 24.888 98.9548 25.68 98.9548 26.676C98.9548 27.348 98.7988 27.924 98.4868 28.404C98.1748 28.872 97.7548 29.238 97.2268 29.502C96.7108 29.754 96.1468 29.88 95.5348 29.88L95.8588 29.232C96.5668 29.232 97.2028 29.364 97.7668 29.628C98.3308 29.88 98.7748 30.252 99.0988 30.744C99.4348 31.236 99.6028 31.848 99.6028 32.58C99.6028 33.66 99.1888 34.5 98.3608 35.1C97.5328 35.7 96.3028 36 94.6708 36H88.4068ZM90.7468 34.164H94.5268C95.4028 34.164 96.0748 34.02 96.5428 33.732C97.0108 33.444 97.2448 32.982 97.2448 32.346C97.2448 31.722 97.0108 31.266 96.5428 30.978C96.0748 30.678 95.4028 30.528 94.5268 30.528H90.5668V28.71H94.0588C94.8748 28.71 95.4988 28.566 95.9308 28.278C96.3748 27.99 96.5968 27.558 96.5968 26.982C96.5968 26.394 96.3748 25.956 95.9308 25.668C95.4988 25.38 94.8748 25.236 94.0588 25.236H90.7468V34.164ZM104.26 28.638H110.524V30.564H104.26V28.638ZM104.44 34.038H111.55V36H102.1V23.4H111.298V25.362H104.44V34.038ZM114.159 36V23.4H119.343C120.459 23.4 121.413 23.58 122.205 23.94C123.009 24.3 123.627 24.816 124.059 25.488C124.491 26.16 124.707 26.958 124.707 27.882C124.707 28.806 124.491 29.604 124.059 30.276C123.627 30.936 123.009 31.446 122.205 31.806C121.413 32.154 120.459 32.328 119.343 32.328H115.455L116.499 31.266V36H114.159ZM122.403 36L119.217 31.428H121.719L124.923 36H122.403ZM116.499 31.518L115.455 30.402H119.235C120.267 30.402 121.041 30.18 121.557 29.736C122.085 29.292 122.349 28.674 122.349 27.882C122.349 27.078 122.085 26.46 121.557 26.028C121.041 25.596 120.267 25.38 119.235 25.38H115.455L116.499 24.228V31.518ZM127.325 36V23.4H132.509C133.625 23.4 134.579 23.58 135.371 23.94C136.175 24.3 136.793 24.816 137.225 25.488C137.657 26.16 137.873 26.958 137.873 27.882C137.873 28.806 137.657 29.604 137.225 30.276C136.793 30.936 136.175 31.446 135.371 31.806C134.579 32.154 133.625 32.328 132.509 32.328H128.621L129.665 31.266V36H127.325ZM135.569 36L132.383 31.428H134.885L138.089 36H135.569ZM129.665 31.518L128.621 30.402H132.401C133.433 30.402 134.207 30.18 134.723 29.736C135.251 29.292 135.515 28.674 135.515 27.882C135.515 27.078 135.251 26.46 134.723 26.028C134.207 25.596 133.433 25.38 132.401 25.38H128.621L129.665 24.228V31.518ZM140.491 36V23.4H142.831V36H140.491ZM148.399 28.638H154.663V30.564H148.399V28.638ZM148.579 34.038H155.689V36H146.239V23.4H155.437V25.362H148.579V34.038ZM162.203 36.18C161.219 36.18 160.277 36.042 159.377 35.766C158.477 35.478 157.763 35.112 157.235 34.668L158.045 32.85C158.549 33.246 159.173 33.576 159.917 33.84C160.661 34.104 161.423 34.236 162.203 34.236C162.863 34.236 163.397 34.164 163.805 34.02C164.213 33.876 164.513 33.684 164.705 33.444C164.897 33.192 164.993 32.91 164.993 32.598C164.993 32.214 164.855 31.908 164.579 31.68C164.303 31.44 163.943 31.254 163.499 31.122C163.067 30.978 162.581 30.846 162.041 30.726C161.513 30.606 160.979 30.468 160.439 30.312C159.911 30.144 159.425 29.934 158.981 29.682C158.549 29.418 158.195 29.07 157.919 28.638C157.643 28.206 157.505 27.654 157.505 26.982C157.505 26.298 157.685 25.674 158.045 25.11C158.417 24.534 158.975 24.078 159.719 23.742C160.475 23.394 161.429 23.22 162.581 23.22C163.337 23.22 164.087 23.316 164.831 23.508C165.575 23.7 166.223 23.976 166.775 24.336L166.037 26.154C165.473 25.818 164.891 25.572 164.291 25.416C163.691 25.248 163.115 25.164 162.563 25.164C161.915 25.164 161.387 25.242 160.979 25.398C160.583 25.554 160.289 25.758 160.097 26.01C159.917 26.262 159.827 26.55 159.827 26.874C159.827 27.258 159.959 27.57 160.223 27.81C160.499 28.038 160.853 28.218 161.285 28.35C161.729 28.482 162.221 28.614 162.761 28.746C163.301 28.866 163.835 29.004 164.363 29.16C164.903 29.316 165.389 29.52 165.821 29.772C166.265 30.024 166.619 30.366 166.883 30.798C167.159 31.23 167.297 31.776 167.297 32.436C167.297 33.108 167.111 33.732 166.739 34.308C166.379 34.872 165.821 35.328 165.065 35.676C164.309 36.012 163.355 36.18 162.203 36.18Z" fill="#000C5D"/>
<path d="M39.662 36L35.486 23.4H37.916L41.642 34.794H40.436L44.306 23.4H46.466L50.228 34.794H49.058L52.874 23.4H55.106L50.93 36H48.446L45.008 25.722H45.656L42.164 36H39.662ZM57.0123 36V23.4H59.3523V36H57.0123ZM62.7604 36V23.4H65.1004V34.02H71.6884V36H62.7604ZM73.5358 36V23.4H79.0438C80.4118 23.4 81.6118 23.664 82.6438 24.192C83.6758 24.72 84.4798 25.452 85.0558 26.388C85.6318 27.324 85.9198 28.428 85.9198 29.7C85.9198 30.96 85.6318 32.064 85.0558 33.012C84.4798 33.948 83.6758 34.68 82.6438 35.208C81.6118 35.736 80.4118 36 79.0438 36H73.5358ZM75.8758 34.02H78.9358C79.8838 34.02 80.6998 33.84 81.3838 33.48C82.0798 33.12 82.6138 32.616 82.9858 31.968C83.3698 31.32 83.5618 30.564 83.5618 29.7C83.5618 28.824 83.3698 28.068 82.9858 27.432C82.6138 26.784 82.0798 26.28 81.3838 25.92C80.6998 25.56 79.8838 25.38 78.9358 25.38H75.8758V34.02ZM88.4068 36V23.4H94.3108C95.8228 23.4 96.9748 23.7 97.7668 24.3C98.5588 24.888 98.9548 25.68 98.9548 26.676C98.9548 27.348 98.7988 27.924 98.4868 28.404C98.1748 28.872 97.7548 29.238 97.2268 29.502C96.7108 29.754 96.1468 29.88 95.5348 29.88L95.8588 29.232C96.5668 29.232 97.2028 29.364 97.7668 29.628C98.3308 29.88 98.7748 30.252 99.0988 30.744C99.4348 31.236 99.6028 31.848 99.6028 32.58C99.6028 33.66 99.1888 34.5 98.3608 35.1C97.5328 35.7 96.3028 36 94.6708 36H88.4068ZM90.7468 34.164H94.5268C95.4028 34.164 96.0748 34.02 96.5428 33.732C97.0108 33.444 97.2448 32.982 97.2448 32.346C97.2448 31.722 97.0108 31.266 96.5428 30.978C96.0748 30.678 95.4028 30.528 94.5268 30.528H90.5668V28.71H94.0588C94.8748 28.71 95.4988 28.566 95.9308 28.278C96.3748 27.99 96.5968 27.558 96.5968 26.982C96.5968 26.394 96.3748 25.956 95.9308 25.668C95.4988 25.38 94.8748 25.236 94.0588 25.236H90.7468V34.164ZM104.26 28.638H110.524V30.564H104.26V28.638ZM104.44 34.038H111.55V36H102.1V23.4H111.298V25.362H104.44V34.038ZM114.159 36V23.4H119.343C120.459 23.4 121.413 23.58 122.205 23.94C123.009 24.3 123.627 24.816 124.059 25.488C124.491 26.16 124.707 26.958 124.707 27.882C124.707 28.806 124.491 29.604 124.059 30.276C123.627 30.936 123.009 31.446 122.205 31.806C121.413 32.154 120.459 32.328 119.343 32.328H115.455L116.499 31.266V36H114.159ZM122.403 36L119.217 31.428H121.719L124.923 36H122.403ZM116.499 31.518L115.455 30.402H119.235C120.267 30.402 121.041 30.18 121.557 29.736C122.085 29.292 122.349 28.674 122.349 27.882C122.349 27.078 122.085 26.46 121.557 26.028C121.041 25.596 120.267 25.38 119.235 25.38H115.455L116.499 24.228V31.518ZM127.325 36V23.4H132.509C133.625 23.4 134.579 23.58 135.371 23.94C136.175 24.3 136.793 24.816 137.225 25.488C137.657 26.16 137.873 26.958 137.873 27.882C137.873 28.806 137.657 29.604 137.225 30.276C136.793 30.936 136.175 31.446 135.371 31.806C134.579 32.154 133.625 32.328 132.509 32.328H128.621L129.665 31.266V36H127.325ZM135.569 36L132.383 31.428H134.885L138.089 36H135.569ZM129.665 31.518L128.621 30.402H132.401C133.433 30.402 134.207 30.18 134.723 29.736C135.251 29.292 135.515 28.674 135.515 27.882C135.515 27.078 135.251 26.46 134.723 26.028C134.207 25.596 133.433 25.38 132.401 25.38H128.621L129.665 24.228V31.518ZM140.491 36V23.4H142.831V36H140.491ZM148.399 28.638H154.663V30.564H148.399V28.638ZM148.579 34.038H155.689V36H146.239V23.4H155.437V25.362H148.579V34.038ZM162.203 36.18C161.219 36.18 160.277 36.042 159.377 35.766C158.477 35.478 157.763 35.112 157.235 34.668L158.045 32.85C158.549 33.246 159.173 33.576 159.917 33.84C160.661 34.104 161.423 34.236 162.203 34.236C162.863 34.236 163.397 34.164 163.805 34.02C164.213 33.876 164.513 33.684 164.705 33.444C164.897 33.192 164.993 32.91 164.993 32.598C164.993 32.214 164.855 31.908 164.579 31.68C164.303 31.44 163.943 31.254 163.499 31.122C163.067 30.978 162.581 30.846 162.041 30.726C161.513 30.606 160.979 30.468 160.439 30.312C159.911 30.144 159.425 29.934 158.981 29.682C158.549 29.418 158.195 29.07 157.919 28.638C157.643 28.206 157.505 27.654 157.505 26.982C157.505 26.298 157.685 25.674 158.045 25.11C158.417 24.534 158.975 24.078 159.719 23.742C160.475 23.394 161.429 23.22 162.581 23.22C163.337 23.22 164.087 23.316 164.831 23.508C165.575 23.7 166.223 23.976 166.775 24.336L166.037 26.154C165.473 25.818 164.891 25.572 164.291 25.416C163.691 25.248 163.115 25.164 162.563 25.164C161.915 25.164 161.387 25.242 160.979 25.398C160.583 25.554 160.289 25.758 160.097 26.01C159.917 26.262 159.827 26.55 159.827 26.874C159.827 27.258 159.959 27.57 160.223 27.81C160.499 28.038 160.853 28.218 161.285 28.35C161.729 28.482 162.221 28.614 162.761 28.746C163.301 28.866 163.835 29.004 164.363 29.16C164.903 29.316 165.389 29.52 165.821 29.772C166.265 30.024 166.619 30.366 166.883 30.798C167.159 31.23 167.297 31.776 167.297 32.436C167.297 33.108 167.111 33.732 166.739 34.308C166.379 34.872 165.821 35.328 165.065 35.676C164.309 36.012 163.355 36.18 162.203 36.18Z" fill="url(#paint0_linear_80_287)"/>
<circle cx="233" cy="30" r="30" fill="#000C5E"/>
<circle cx="233" cy="30" r="30" fill="url(#paint1_linear_80_287)"/>
<path d="M226 29C225.448 29 225 29.4477 225 30C225 30.5523 225.448 31 226 31V29ZM240.207 30.7071C240.598 30.3166 240.598 29.6834 240.207 29.2929L233.843 22.9289C233.453 22.5384 232.819 22.5384 232.429 22.9289C232.038 23.3195 232.038 23.9526 232.429 24.3431L238.086 30L232.429 35.6569C232.038 36.0474 232.038 36.6805 232.429 37.0711C232.819 37.4616 233.453 37.4616 233.843 37.0711L240.207 30.7071ZM226 31H239.5V29H226V31Z" fill="white"/>
<defs>
<linearGradient id="paint0_linear_80_287" x1="106.998" y1="19" x2="89.348" y2="74.7739" gradientUnits="userSpaceOnUse">
<stop stop-color="#AE119C"/>
<stop offset="1" stop-color="#490F74"/>
</linearGradient>
<linearGradient id="paint1_linear_80_287" x1="235.48" y1="1.82349e-06" x2="166.78" y2="35.9093" gradientUnits="userSpaceOnUse">
<stop stop-color="#AE119C"/>
<stop offset="1" stop-color="#490F74"/>
</linearGradient>
</defs>
</svg>
