<svg width="60" height="60" viewBox="0 0 60 60" fill="none" xmlns="http://www.w3.org/2000/svg">
<circle cx="30" cy="30" r="30" fill="#000C5E"/>
<path d="M23 29C22.4477 29 22 29.4477 22 30C22 30.5523 22.4477 31 23 31V29ZM37.2071 30.7071C37.5976 30.3166 37.5976 29.6834 37.2071 29.2929L30.8431 22.9289C30.4526 22.5384 29.8195 22.5384 29.4289 22.9289C29.0384 23.3195 29.0384 23.9526 29.4289 24.3431L35.0858 30L29.4289 35.6569C29.0384 36.0474 29.0384 36.6805 29.4289 37.0711C29.8195 37.4616 30.4526 37.4616 30.8431 37.0711L37.2071 30.7071ZM23 31H36.5V29H23V31Z" fill="white"/>
</svg>
