<svg width="187" height="60" viewBox="0 0 187 60" fill="none" xmlns="http://www.w3.org/2000/svg">
<rect width="127" height="60" rx="30" fill="white"/>
<path d="M42.596 36.18C41.612 36.18 40.706 36.018 39.878 35.694C39.05 35.37 38.33 34.92 37.718 34.344C37.106 33.756 36.632 33.072 36.296 32.292C35.96 31.5 35.792 30.636 35.792 29.7C35.792 28.764 35.96 27.906 36.296 27.126C36.632 26.334 37.106 25.65 37.718 25.074C38.33 24.486 39.05 24.03 39.878 23.706C40.706 23.382 41.606 23.22 42.578 23.22C43.562 23.22 44.462 23.382 45.278 23.706C46.106 24.03 46.826 24.486 47.438 25.074C48.05 25.65 48.524 26.334 48.86 27.126C49.196 27.906 49.364 28.764 49.364 29.7C49.364 30.636 49.196 31.5 48.86 32.292C48.524 33.084 48.05 33.768 47.438 34.344C46.826 34.92 46.106 35.37 45.278 35.694C44.462 36.018 43.568 36.18 42.596 36.18ZM42.578 34.128C43.214 34.128 43.802 34.02 44.342 33.804C44.882 33.588 45.35 33.282 45.746 32.886C46.142 32.478 46.448 32.01 46.664 31.482C46.892 30.942 47.006 30.348 47.006 29.7C47.006 29.052 46.892 28.464 46.664 27.936C46.448 27.396 46.142 26.928 45.746 26.532C45.35 26.124 44.882 25.812 44.342 25.596C43.802 25.38 43.214 25.272 42.578 25.272C41.942 25.272 41.354 25.38 40.814 25.596C40.286 25.812 39.818 26.124 39.41 26.532C39.014 26.928 38.702 27.396 38.474 27.936C38.258 28.464 38.15 29.052 38.15 29.7C38.15 30.336 38.258 30.924 38.474 31.464C38.702 32.004 39.014 32.478 39.41 32.886C39.806 33.282 40.274 33.588 40.814 33.804C41.354 34.02 41.942 34.128 42.578 34.128ZM50.7497 36V34.434L58.8857 24.498L59.1557 25.38H50.8757V23.4H61.2617V24.966L53.1257 34.902L52.8377 34.02H61.4957V36H50.7497ZM69.4026 36.18C68.4186 36.18 67.5126 36.018 66.6846 35.694C65.8566 35.37 65.1366 34.92 64.5246 34.344C63.9126 33.756 63.4386 33.072 63.1026 32.292C62.7666 31.5 62.5986 30.636 62.5986 29.7C62.5986 28.764 62.7666 27.906 63.1026 27.126C63.4386 26.334 63.9126 25.65 64.5246 25.074C65.1366 24.486 65.8566 24.03 66.6846 23.706C67.5126 23.382 68.4126 23.22 69.3846 23.22C70.3686 23.22 71.2686 23.382 72.0846 23.706C72.9126 24.03 73.6326 24.486 74.2446 25.074C74.8566 25.65 75.3306 26.334 75.6666 27.126C76.0026 27.906 76.1706 28.764 76.1706 29.7C76.1706 30.636 76.0026 31.5 75.6666 32.292C75.3306 33.084 74.8566 33.768 74.2446 34.344C73.6326 34.92 72.9126 35.37 72.0846 35.694C71.2686 36.018 70.3746 36.18 69.4026 36.18ZM69.3846 34.128C70.0206 34.128 70.6086 34.02 71.1486 33.804C71.6886 33.588 72.1566 33.282 72.5526 32.886C72.9486 32.478 73.2546 32.01 73.4706 31.482C73.6986 30.942 73.8126 30.348 73.8126 29.7C73.8126 29.052 73.6986 28.464 73.4706 27.936C73.2546 27.396 72.9486 26.928 72.5526 26.532C72.1566 26.124 71.6886 25.812 71.1486 25.596C70.6086 25.38 70.0206 25.272 69.3846 25.272C68.7486 25.272 68.1606 25.38 67.6206 25.596C67.0926 25.812 66.6246 26.124 66.2166 26.532C65.8206 26.928 65.5086 27.396 65.2806 27.936C65.0646 28.464 64.9566 29.052 64.9566 29.7C64.9566 30.336 65.0646 30.924 65.2806 31.464C65.5086 32.004 65.8206 32.478 66.2166 32.886C66.6126 33.282 67.0806 33.588 67.6206 33.804C68.1606 34.02 68.7486 34.128 69.3846 34.128ZM78.651 36V23.4H80.577L88.479 33.102H87.525V23.4H89.847V36H87.921L80.019 26.298H80.973V36H78.651Z" fill="#005BFF"/>
<circle cx="157" cy="30" r="30" fill="#005BFF"/>
<path d="M150 29C149.448 29 149 29.4477 149 30C149 30.5523 149.448 31 150 31V29ZM164.207 30.7071C164.598 30.3166 164.598 29.6834 164.207 29.2929L157.843 22.9289C157.453 22.5384 156.819 22.5384 156.429 22.9289C156.038 23.3195 156.038 23.9526 156.429 24.3431L162.086 30L156.429 35.6569C156.038 36.0474 156.038 36.6805 156.429 37.0711C156.819 37.4616 157.453 37.4616 157.843 37.0711L164.207 30.7071ZM150 31H163.5V29H150V31Z" fill="white"/>
</svg>
