<svg width="107" height="87" viewBox="0 0 107 87" fill="none" xmlns="http://www.w3.org/2000/svg">
<ellipse cx="52.7685" cy="42.9424" rx="32.5498" ry="38.6529" fill="#9CDCF8"/>
<ellipse cx="52.3898" cy="42.6576" rx="26.6635" ry="45.683" transform="rotate(67.6542 52.3898 42.6576)" fill="#03AEEF"/>
<ellipse cx="53.5992" cy="43.0913" rx="27.6705" ry="45.683" transform="rotate(112.582 53.5992 43.0913)" fill="#E41F24"/>
<ellipse cx="52.6902" cy="43.3495" rx="40.0769" ry="29.2948" fill="#05168B"/>
<path d="M72.0679 58.1098C70.4734 58.1098 69.024 57.7184 67.7194 56.9357C66.4439 56.124 65.4292 55.0514 64.6755 53.7178C63.9218 52.3843 63.5449 50.8913 63.5449 49.2389L63.5884 35.6718C63.5884 34.0773 63.9508 32.6279 64.6755 31.3233C65.4292 29.9898 66.4439 28.9317 67.7194 28.149C69.024 27.3373 70.4734 26.9314 72.0679 26.9314C73.6623 26.9314 75.0973 27.3228 76.3728 28.1055C77.6484 28.8882 78.663 29.9463 79.4168 31.2798C80.1705 32.5844 80.5473 34.0484 80.5473 35.6718V37.6721C80.5473 37.788 80.4894 37.846 80.3734 37.846H75.5032C75.3872 37.846 75.3292 37.788 75.3292 37.6721V35.6718C75.3292 34.7151 75.0103 33.8889 74.3726 33.1932C73.7638 32.4974 72.9955 32.1495 72.0679 32.1495C71.0243 32.1495 70.227 32.5119 69.6762 33.2366C69.1254 33.9324 68.85 34.7441 68.85 35.6718V49.2389C68.85 50.3116 69.1544 51.1812 69.7632 51.848C70.401 52.5148 71.1692 52.8481 72.0679 52.8481C72.9955 52.8481 73.7638 52.4858 74.3726 51.761C75.0103 51.0073 75.3292 50.1666 75.3292 49.2389V47.2386C75.3292 47.1227 75.3872 47.0647 75.5032 47.0647H80.4169C80.5329 47.0647 80.5908 47.1227 80.5908 47.2386V49.2389C80.5908 50.8913 80.1995 52.3843 79.4168 53.7178C78.663 55.0514 77.6484 56.124 76.3728 56.9357C75.0973 57.7184 73.6623 58.1098 72.0679 58.1098Z" fill="white"/>
<path d="M44.0694 57.6749C43.9535 57.6749 43.8955 57.6024 43.8955 57.4574L43.9825 27.5836C43.9825 27.4676 44.0405 27.4097 44.1564 27.4097H52.5054C54.1578 27.4097 55.6363 27.8155 56.9409 28.6272C58.2454 29.41 59.2745 30.4536 60.0282 31.7581C60.782 33.0627 61.1588 34.4831 61.1588 36.0196C61.1588 37.2662 60.8689 38.4257 60.2892 39.4984C59.7384 40.571 59.0716 41.4407 58.2889 42.1074C59.1296 42.9481 59.7818 43.9193 60.2457 45.0209C60.7095 46.1225 60.9414 47.2821 60.9414 48.4996C60.9414 50.181 60.5356 51.7175 59.7239 53.109C58.9121 54.5005 57.8105 55.6166 56.419 56.4573C55.0565 57.269 53.5346 57.6749 51.8532 57.6749H44.0694ZM49.2006 39.4114H52.5054C53.5201 39.4114 54.3318 39.0635 54.9406 38.3678C55.5783 37.643 55.8972 36.8603 55.8972 36.0196C55.8972 35.0919 55.5638 34.2947 54.8971 33.6279C54.2303 32.9322 53.4331 32.5843 52.5054 32.5843H49.2006V39.4114ZM49.1571 52.3698H51.8532C52.8968 52.3698 53.7955 51.9929 54.5492 51.2392C55.3029 50.4564 55.6798 49.5433 55.6798 48.4996C55.6798 47.456 55.3029 46.5573 54.5492 45.8036C53.7955 45.0499 52.8968 44.673 51.8532 44.673H49.2006L49.1571 52.3698Z" fill="white"/>
<path d="M23.8594 57.4574L29.2515 27.5836C29.2804 27.4676 29.3529 27.4097 29.4689 27.4097H35.7741C35.8901 27.4097 35.9626 27.4676 35.9915 27.5836L41.1662 57.4574C41.1952 57.6024 41.1372 57.6749 40.9923 57.6749H36.1655C36.0495 57.6749 35.977 57.6024 35.9481 57.4574L35.4697 54.2831H29.5558L29.0775 57.4574C29.0485 57.6024 28.976 57.6749 28.8601 57.6749H24.0333C23.9174 57.6749 23.8594 57.6024 23.8594 57.4574ZM30.4255 49.6302H34.6L32.8172 37.4111L32.5563 35.8022L32.3823 37.4111L30.4255 49.6302Z" fill="white"/>
</svg>
