<svg width="60" height="60" viewBox="0 0 60 60" fill="none" xmlns="http://www.w3.org/2000/svg">
<circle cx="30" cy="30" r="30" transform="rotate(90 30 30)" fill="white"/>
<path d="M40 31C40.5523 31 41 30.5523 41 30C41 29.4477 40.5523 29 40 29L40 31ZM19.2929 29.2929C18.9024 29.6834 18.9024 30.3166 19.2929 30.7071L25.6569 37.0711C26.0474 37.4616 26.6805 37.4616 27.0711 37.0711C27.4616 36.6805 27.4616 36.0474 27.0711 35.6569L21.4142 30L27.0711 24.3431C27.4616 23.9526 27.4616 23.3195 27.0711 22.9289C26.6805 22.5384 26.0474 22.5384 25.6569 22.9289L19.2929 29.2929ZM40 29L20 29L20 31L40 31L40 29Z" fill="black"/>
</svg>
