<svg width="60" height="61" viewBox="0 0 60 61" fill="none" xmlns="http://www.w3.org/2000/svg">
<circle cx="30" cy="30.5" r="30" transform="rotate(90 30 30.5)" fill="white"/>
<path d="M20 29.5C19.4477 29.5 19 29.9477 19 30.5C19 31.0523 19.4477 31.5 20 31.5L20 29.5ZM40.7071 31.2071C41.0976 30.8166 41.0976 30.1834 40.7071 29.7929L34.3431 23.4289C33.9526 23.0384 33.3195 23.0384 32.9289 23.4289C32.5384 23.8195 32.5384 24.4526 32.9289 24.8431L38.5858 30.5L32.9289 36.1569C32.5384 36.5474 32.5384 37.1805 32.9289 37.5711C33.3195 37.9616 33.9526 37.9616 34.3431 37.5711L40.7071 31.2071ZM20 31.5L40 31.5L40 29.5L20 29.5L20 31.5Z" fill="black"/>
</svg>
