<svg width="31" height="24" viewBox="0 0 31 24" fill="none" xmlns="http://www.w3.org/2000/svg">
<path d="M0.789101 10.9098C0.462731 11.2355 0.278317 11.6784 0.276413 12.1409C0.274509 12.6034 0.45527 13.0477 0.778946 13.3761L10.546 23.2837C10.7052 23.451 10.896 23.5846 11.1071 23.6769C11.3183 23.7692 11.5456 23.8183 11.7758 23.8212C12.006 23.8242 12.2345 23.781 12.4479 23.6942C12.6613 23.6073 12.8554 23.4786 13.0189 23.3155C13.1823 23.1524 13.3119 22.9582 13.3999 22.7442C13.488 22.5302 13.5328 22.3007 13.5317 22.0691C13.5307 21.8375 13.4838 21.6084 13.3938 21.3952C13.3038 21.182 13.1726 20.989 13.0076 20.8274L6.18779 13.9095L29.1475 14.004C29.6073 14.0059 30.049 13.824 30.3755 13.4982C30.702 13.1724 30.8865 12.7295 30.8884 12.2669C30.8903 11.8043 30.7095 11.3599 30.3857 11.0314C30.0619 10.703 29.6217 10.5174 29.1619 10.5155L6.20216 10.421L13.0787 3.55941C13.3959 3.23174 13.5725 2.79187 13.5704 2.33452C13.5683 1.87716 13.3878 1.43893 13.0677 1.11421C12.7476 0.789493 12.3135 0.604261 11.8589 0.598414C11.4044 0.592567 10.9657 0.766575 10.6374 1.08296L0.789101 10.9098Z" fill="black"/>
</svg>
