<svg width="31" height="24" viewBox="0 0 31 24" fill="none" xmlns="http://www.w3.org/2000/svg">
<path d="M30.3811 13.4799C30.7061 13.1528 30.8887 12.7093 30.8887 12.2467C30.8887 11.7842 30.7061 11.3407 30.3811 11.0136L20.5733 1.14627C20.4134 0.979677 20.2221 0.846795 20.0105 0.75538C19.799 0.663965 19.5715 0.615847 19.3413 0.613835C19.1111 0.611822 18.8828 0.655956 18.6697 0.743658C18.4567 0.831361 18.2631 0.960878 18.1003 1.12465C17.9375 1.28842 17.8088 1.48317 17.7216 1.69754C17.6344 1.9119 17.5906 2.14158 17.5926 2.37319C17.5946 2.60479 17.6424 2.83367 17.7333 3.04648C17.8241 3.25928 17.9562 3.45175 18.1218 3.61266L24.9701 10.5025L2.01017 10.5025C1.55035 10.5025 1.10937 10.6863 0.784227 11.0134C0.459087 11.3405 0.276428 11.7841 0.276428 12.2467C0.276428 12.7094 0.459087 13.153 0.784227 13.4801C1.10936 13.8072 1.55035 13.991 2.01017 13.991L24.9701 13.991L18.1218 20.8808C17.806 21.2098 17.6312 21.6504 17.6352 22.1077C17.6391 22.5651 17.8215 23.0026 18.1429 23.326C18.4644 23.6494 18.8992 23.8328 19.3538 23.8368C19.8084 23.8408 20.2463 23.665 20.5733 23.3472L30.3811 13.4799Z" fill="black"/>
</svg>
