<svg width="42" height="42" viewBox="0 0 42 42" fill="none" xmlns="http://www.w3.org/2000/svg">
<rect width="42" height="42" rx="21" fill="white"/>
<path d="M30.9409 24.7905L25.7587 22.4684L25.7444 22.4618C25.4754 22.3467 25.1819 22.3006 24.8906 22.3274C24.5992 22.3543 24.3191 22.4534 24.0757 22.6158C24.047 22.6347 24.0195 22.6553 23.9932 22.6774L21.3158 24.9599C19.6196 24.136 17.8684 22.398 17.0445 20.7238L19.3303 18.0057C19.3523 17.9782 19.3732 17.9507 19.393 17.921C19.5518 17.6782 19.6482 17.3999 19.6736 17.1109C19.6989 16.8219 19.6524 16.531 19.5382 16.2643V16.2511L17.2095 11.0602C17.0585 10.7118 16.7989 10.4215 16.4694 10.2328C16.1399 10.0441 15.7582 9.96695 15.3812 10.013C13.8907 10.2091 12.5225 10.9411 11.5322 12.0723C10.542 13.2035 9.99731 14.6564 10 16.1598C10 24.8939 17.1061 32 25.8401 32C27.3435 32.0027 28.7965 31.458 29.9276 30.4677C31.0588 29.4775 31.7908 28.1093 31.987 26.6187C32.0331 26.2419 31.9561 25.8603 31.7676 25.5309C31.5791 25.2014 31.2891 24.9417 30.9409 24.7905ZM25.8401 30.24C22.1071 30.2359 18.5281 28.7511 15.8885 26.1115C13.2488 23.4718 11.7641 19.8929 11.76 16.1598C11.7559 15.0857 12.1429 14.0467 12.8487 13.237C13.5546 12.4273 14.5311 11.9022 15.5958 11.7598C15.5953 11.7642 15.5953 11.7686 15.5958 11.773L17.9058 16.943L15.632 19.6645C15.6089 19.691 15.588 19.7193 15.5693 19.7492C15.4038 20.0032 15.3067 20.2957 15.2874 20.5982C15.2682 20.9008 15.3274 21.2032 15.4593 21.4762C16.456 23.5145 18.5097 25.5528 20.57 26.5483C20.8449 26.6791 21.1491 26.7362 21.4528 26.7143C21.7565 26.6923 22.0492 26.5919 22.3025 26.4229C22.3308 26.404 22.358 26.3834 22.3839 26.3613L25.058 24.0799L30.2281 26.3954H30.2402C30.0995 27.4616 29.5752 28.4401 28.7653 29.1477C27.9555 29.8553 26.9156 30.2436 25.8401 30.24Z" fill="#05168B"/>
</svg>
